<svg xmlns="http://www.w3.org/2000/svg" viewBox="0 0 128 128" width="128" height="128">
  <defs>
    <linearGradient id="bg" x1="0" y1="0" x2="1" y2="1">
      <stop offset="0%" stop-color="#6366f1"/>
      <stop offset="100%" stop-color="#8b5cf6"/>
    </linearGradient>
  </defs>
  <rect width="128" height="128" rx="28" fill="url(#bg)"/>
  <g fill="#ffffff">
    <path d="M88 28c0-2.2-1.8-4-4-4L54 28c-2.2 0-4 1.8-4 4v48c0 2.2 1.8 4 4 4l30-4c2.2 0 4-1.8 4-4V28z"/>
    <circle cx="46" cy="86" r="10" fill="#fff"/>
    <circle cx="88" cy="82" r="10" fill="#fff"/>
    <path d="M46 76V36l30-4v44"/>
    <path d="M76 32l12-4v48l-12 4V32z" opacity="0.3"/>
  </g>
</svg>
